<svg width="322" height="45" viewBox="0 0 322 45" fill="none" xmlns="http://www.w3.org/2000/svg">
<g clip-path="url(#clip0_3757_806)">
<path d="M121.038 17.5833V37.4993H113.696V17.5833H106.274V11.2427H128.454V17.5833H121.038Z" fill="#0A9600"/>
<path d="M145.594 29.581H133.937C134.166 31.7555 135.452 32.7305 137.306 32.7305C139.047 32.7305 140.486 32.3542 142.454 31.3418L145.064 35.6555C142.605 37.0796 140.069 37.9049 136.966 37.9049C130.986 37.9049 127.692 33.7034 127.692 27.6642C127.692 20.8766 131.552 17.3882 136.775 17.3882C142.23 17.3882 145.634 20.9514 145.634 28.265C145.645 28.7041 145.631 29.1433 145.594 29.581V29.581ZM136.587 22.3776C135.034 22.3776 134.166 23.4274 133.937 25.3774H139.616C139.274 23.3962 138.592 22.3838 136.587 22.3838V22.3776Z" fill="#0A9600"/>
<path d="M158.269 37.9108C152.441 37.9108 148.959 34.2373 148.959 27.5973C148.959 21.5581 152.064 17.394 158.42 17.394C162.168 17.394 164.325 19.1195 166.066 21.8949L161.373 25.429C160.427 23.7035 159.783 22.8782 158.309 22.8782C156.565 22.8782 155.695 24.6058 155.695 27.7179C155.695 30.83 156.641 32.4432 158.495 32.4432C159.783 32.4432 160.692 31.7302 161.94 29.8924L166.255 33.2311C163.947 36.599 161.789 37.9108 158.269 37.9108Z" fill="#0A9600"/>
<path d="M181.503 37.4993V26.321C181.503 23.7702 180.632 23.0966 179.231 23.0966C177.792 23.0966 176.924 23.7702 176.924 26.2461V37.4993H170.11V12.8559L176.924 10.1533V19.1176C178.172 18.18 179.573 17.3921 181.918 17.3921C186.271 17.3921 188.354 20.2797 188.354 25.4561V37.4972L181.503 37.4993Z" fill="#0A9600"/>
<path d="M204.662 37.9109C196.79 37.9109 192.588 32.1357 192.588 24.371C192.588 15.9327 197.583 10.8311 204.698 10.8311C211.201 10.8311 213.783 13.6064 215.606 18.5583L208.933 21.1466C207.985 18.708 207.077 17.1696 204.656 17.1696C201.589 17.1696 200.266 20.2069 200.266 24.371C200.266 28.3853 201.551 31.5723 204.732 31.5723C207.039 31.5723 208.023 30.3353 209.462 27.8594L215.669 31.1233C213.896 34.5701 210.943 37.9109 204.662 37.9109Z" fill="#0A9600"/>
<path d="M232.427 25.2336C231.557 24.296 230.573 23.5829 229.249 23.5829C227.571 23.5829 226.56 24.3709 226.56 26.772V37.4991H219.755V17.8077H226.566V19.2318C227.739 18.1071 229.065 17.394 230.808 17.394C232.245 17.394 233.229 17.7308 234.024 18.2256L232.427 25.2336Z" fill="#0A9600"/>
<path d="M248.628 37.4995V36.1856C247.418 37.1232 245.979 37.9111 243.671 37.9111C239.318 37.9111 237.237 35.0256 237.237 29.847V17.8081H244.088V28.9864C244.088 31.5351 244.957 32.2108 246.358 32.2108C247.759 32.2108 248.628 31.5351 248.628 29.0591V17.8081H255.479V37.4995H248.628Z" fill="#0A9600"/>
<path d="M271.787 37.4991V26.3209C271.787 23.77 270.917 23.0965 269.518 23.0965C268.078 23.0965 267.21 23.77 267.21 26.246V37.4991H260.395V17.8077H267.208V19.1195C268.467 18.1819 269.857 17.394 272.203 17.394C276.555 17.394 278.638 20.2816 278.638 25.4581V37.4991H271.787Z" fill="#0A9600"/>
<path d="M291.914 37.9108C286.087 37.9108 282.604 34.2373 282.604 27.5973C282.604 21.5581 285.709 17.394 292.067 17.394C295.814 17.394 297.97 19.1195 299.711 21.8949L295.019 25.429C294.073 23.7035 293.429 22.8782 291.954 22.8782C290.211 22.8782 289.34 24.6058 289.34 27.7179C289.34 30.83 290.286 32.4432 292.143 32.4432C293.429 32.4432 294.337 31.7302 295.585 29.8924L299.9 33.2311C297.593 36.599 295.434 37.9108 291.914 37.9108Z" fill="#0A9600"/>
<path d="M315.149 37.4993V26.321C315.149 23.7702 314.278 23.0966 312.879 23.0966C311.438 23.0966 310.572 23.7702 310.572 26.2461V37.4993H303.75V12.8559L310.563 10.1533V19.1176C311.822 18.18 313.213 17.3921 315.558 17.3921C319.911 17.3921 321.994 20.2797 321.994 25.4561V37.4972L315.149 37.4993Z" fill="#0A9600"/>
<path d="M0 0V14.9993H15.135V45H30.2722V14.9993H45.4072V0H0Z" fill="#0A9600"/>
<path d="M60.5423 30.0009V14.9995H45.4072V45.0002H90.8145V30.0009H60.5423Z" fill="#0A9600"/>
<path d="M90.8142 0H60.542V14.9993H90.8142V0Z" fill="#0A9600"/>
</g>
<defs>
<clipPath id="clip0_3757_806">
<rect width="322" height="45" fill="white"/>
</clipPath>
</defs>
</svg>
